<?xml version="1.0" encoding="UTF-8"?>
<!-- Created with Inkscape (http://www.inkscape.org/) -->
<!-- Modified by me -->

<svg xmlns:cc="http://creativecommons.org/ns#"
   xmlns:svg="http://www.w3.org/2000/svg"
   xmlns="http://www.w3.org/2000/svg"
   version="1.1" width="125" height="72">
  <desc>Helsingin yliopiston Viikin normaalikoulun logo. Kuva on saatavilla Creative Commons Attribution/Share-Alike -lisenssillä.</desc>
  <rect style="fill:#fff" width="125" height="72" x="0" y="0" />
  <rect x="1"    y="0" width="17" height="17" style="fill:#e8b121" />
  <rect x="22.2" y="0" width="17" height="17" style="fill:#ab273e" />
  <rect x="43.4" y="0" width="17" height="17" style="fill:#70205f" />
  <rect x="64.6" y="0" width="17" height="17" style="fill:#174882" />
  <rect x="85.8" y="0" width="17" height="17" style="fill:#008167" />
  <rect x="107"  y="0" width="17" height="17" style="fill:#b4a9a8" />
  <!--<text style="font-size:6.738px;writing-mode:lr-tb;fill:#333;font-family:FreeSans"
     transform="scale(0.953,1.049)"><tspan
       x="0.1169876" y="26.43294" style="font-size:11.229px">HELSINGIN YLIOPISTON</tspan></text>
  <text style="font-size:11.091px;writing-mode:lr-tb;fill:#333;font-family:FreeSans"
     transform="scale(0.941,1.062)"><tspan
       x="0.72940218" y="37.733894">VIIKIN NORMAALIKOULU</tspan></text>-->
  <!-- H --><path style="fill:#333" d="m 6.0078709,23.817452 -4.012964,0 0,3.910702 -0.99521505,0 0,-8.587053 0.99521505,0 0,3.710455 4.012964,0 0,-3.710455 0.995215,0 0,8.587053 -0.995215,0" />
  <!-- E --><path style="fill:#333" d="m 9.8031317,23.817452 0,2.944806 4.6015323,0 0,0.965896 -5.5967477,0 0,-8.587053 5.4041247,0 0,0.965896 -4.4089093,0 0,2.744559 4.2483913,0 0,0.965896" />
  <!-- L --><path style="fill:#333" d="m 16.84421,19.141101 0,7.621157 3.852446,0 0,0.965896 -4.847661,0 0,-8.587053" />
  <!-- S --><path style="fill:#333" d="m 21.045283,24.995379 0.941709,0 c 0,2.78191 4.194885,2.589793 4.194885,0.482944 0,-2.248465 -4.901167,-0.883397 -4.901167,-3.957819 0,-3.416232 5.628851,-3.462911 5.628851,0.14135 l -0.941709,0 c 0,-2.345624 -3.691927,-2.142462 -3.691927,-0.29448 0,2.125899 4.901167,0.815903 4.901167,4.004936 0,3.445131 -6.131809,3.852164 -6.131809,-0.376931 z" />
  <!-- I --><path style="fill:#333" d="m 29.755754,19.141101 0,8.587053 -1.005916,0 0,-8.587053" />
  <!-- N --><path style="fill:#333" d="m 37.560638,19.141101 0,8.587053 -1.12363,0 -4.034367,-6.961521 0,6.961521 -0.941708,0 0,-8.587053 1.080824,0 4.077172,7.020417 0,-7.020417" />
  <!-- G --><path style="fill:#333" d="m 45.090628,24.15905 c 0,3.991289 -5.243607,3.970517 -5.243607,-0.694975 -0.265625,-4.015625 4.434978,-4.688516 4.997478,-1.719766 l 1.016617,0 c -0.359375,-3.67826 -7.009309,-4.195399 -7.009309,1.778662 0,5.342067 4.879446,5.148778 6.238821,3.109716 l 0.246129,1.142584 0.631373,0 0,-4.582118 -3.253176,0 0,0.965897 2.375674,0 z" />
  <!-- I --><path style="fill:#333" d="m 48.775532,19.141101 0,8.587053 -1.005916,0 0,-8.587053" />
  <!-- N --><path style="fill:#333" d="m 56.580412,19.141101 0,8.587053 -1.123629,0 -4.034367,-6.961521 0,6.961521 -0.94171,0 0,-8.587053 1.080826,0 4.077172,7.020417 0,-7.020417" />

  <!-- Y --><path style="fill:#333" d="m 64.510029,24.359297 0,3.368857 -0.995215,0 0,-3.368857 -3.007048,-5.218196 1.230643,0 2.290064,4.181623 2.225858,-4.181623 1.187837,0" />
  <!-- L --><path style="fill:#333" d="m 69.36806,19.141101 0,7.621157 3.852445,0 0,0.965896 -4.84766,0 0,-8.587053" />
  <!-- I --><path style="fill:#333" d="m 75.549523,19.141101 0,8.587053 -1.005916,0 0,-8.587053" />
  <!-- O --><path style="fill:#333" d="m 80.59375,19 c -4.959863,0 -5.0325,9 0.03125,9 5.06375,0 4.928613,-9 -0.03125,-9 z m 0,0.96875 c 3.665504,0 3.773539,7.0625 0.03125,7.0625 -3.742281,0 -3.696763,-7.0625 -0.03125,-7.0625 z" />
  <!-- P --><path style="fill:#333" d="m 85.71875,19.15625 0,8.5625 1,0 0,-3.625 2.46875,0 c 2.831487,0 3.163295,-4.9375 -0.21875,-4.9375 l -3.25,0 z m 1,0.9375 2.09375,0 c 2.016711,0 2.097377,3.03125 0,3.03125 l -2.09375,0 0,-3.03125 z" />
  <!-- I --><path style="fill:#333" d="m 93.98408,19.141101 0,8.587053 -1.005916,0 0,-8.587053" />
  <!-- S --><path style="fill:#333" d="m 95.389616,24.995379 0.941709,0 c 0,2.78191 4.194885,2.589793 4.194885,0.482944 0,-2.248465 -4.901167,-0.883397 -4.901167,-3.957819 0,-3.416232 5.628847,-3.462911 5.628847,0.14135 l -0.9417,0 c 0,-2.345624 -3.691932,-2.142462 -3.691932,-0.29448 0,2.125899 4.901162,0.815903 4.901162,4.004936 0,3.445131 -6.131804,3.852164 -6.131804,-0.376931 z" />
  <!-- T --><path style="fill:#333" d="m 105.39427,20.106997 0,7.621157 -0.99522,0 0,-7.621157 -2.56829,0 0,-0.965896 6.12111,0 0,0.965896" />
  <!-- O --><path style="fill:#333" d="m 111.87222,19.00193 c -4.95986,0 -5.0325,9 0.0312,9 5.06375,0 4.92861,-9 -0.0312,-9 z m 0,0.96875 c 3.6655,0 3.77354,7.0625 0.0312,7.0625 -3.74228,0 -3.69676,-7.0625 -0.0312,-7.0625 z" />
  <!-- N --><path style="fill:#333" d="m 122.96153,19.141101 0,8.587053 -1.12363,0 -4.03437,-6.961521 0,6.961521 -0.9417,0 0,-8.587053 1.08082,0 4.07717,7.020417 0,-7.020417" />

  <!-- V --><path style="fill:#333" d="m 4.7775266,40.073395 -1.043663,0 -2.7343972,-8.586629 1.043663,0 2.2334389,7.267422 2.1081995,-7.267422 1.0332264,0" />
  <!-- I --><path style="fill:#333" d="m 9.6824167,31.486766 0,8.586629 -0.9810431,0 0,-8.586629" />
  <!-- I --><path style="fill:#333" d="m 12.576951,31.486766 0,8.586629 -0.981043,0 0,-8.586629" />
  <!-- K --><path style="fill:#333" d="m 15.241879,37.069842 0,3.003553 -0.970606,0 0,-8.586629 0.970606,0 0,4.346318 3.788498,-4.346318 1.252395,0 -3.099679,3.498257 3.130989,5.088372 -1.148029,0 -2.682214,-4.405212" />
  <!-- I --><path style="fill:#333" d="m 22.442829,31.486766 0,8.586629 -0.981043,0 0,-8.586629" />
  <!-- N --><path style="fill:#333" d="m 30.05472,31.486766 0,8.586629 -1.095846,0 -3.93461,-6.961176 0,6.961176 -0.918423,0 0,-8.586629 1.054099,0 3.976357,7.02007 0,-7.02007" />

  <!-- N --><path style="fill:#333" d="m 40.49135,31.486766 0,8.586629 -1.095845,0 -3.93461,-6.961176 0,6.961176 -0.918423,0 0,-8.586629 1.054099,0 3.976357,7.02007 0,-7.02007" />
  <!-- O --><path style="fill:#333" d="m 45.33042,31.347206 c -4.959863,0 -5.0325,9 0.03125,9 5.06375,0 4.928613,-9 -0.03125,-9 z m 0,0.96875 c 3.665504,0 3.773539,7.0625 0.03125,7.0625 -3.742281,0 -3.696763,-7.0625 -0.03125,-7.0625 z" />
  <!-- R --><path style="fill:#333" d="m 50.374839,31.486766 -0.02939,8.590849 1,0 0,-3.702713 2.504791,0 c 2.000639,0 0.883003,2.760993 1.461128,3.698493 l 1.179336,0 0,-0.270908 c -1.0625,-0.691082 0.341305,-3.179559 -1.492432,-3.969403 1.708474,-0.806321 1.841254,-4.346318 -1.116722,-4.346318 l -3.506708,0 z m 0.970604,0.965849 2.348242,0 c 2.016711,0 1.988984,2.956439 0,2.956439 l -2.348242,0 0,-2.956439 z" />
  <!-- M --><path style="fill:#333" d="m 61.830675,40.073395 -1.02279,0 -2.160383,-7.196749 0,7.196749 -0.918423,0 0,-8.586629 1.346325,0 2.254312,7.479437 2.212566,-7.479437 1.346326,0 0,8.586629 -0.918424,0 0,-7.196749" />
  <!-- A --><path style="fill:#333" d="m 70.597279,37.493873 -2.932693,0 -0.803621,2.579522 -1.033226,0 2.713524,-8.586629 1.252396,0 2.671777,8.586629 -1.08541,0 m -1.054099,-3.498256 -1.168903,-3.910508 -1.252396,3.910508 2.421299,0" />
  <!-- A --><path style="fill:#333" d="m 77.568621,37.493873 -2.932693,0 -0.803621,2.579522 -1.033226,0 2.713524,-8.586629 1.252396,0 2.671776,8.586629 -1.085409,0 m -1.054099,-3.498256 -1.168903,-3.910508 -1.252396,3.910508 2.421299,0" />
  <!-- L --><path style="fill:#333" d="m 81.398536,31.486766 0,7.620781 3.757187,0 0,0.965848 -4.727793,0 0,-8.586629" />
  <!-- I --><path style="fill:#333" d="m 87.427163,31.486766 0,8.586629 -0.981043,0 0,-8.586629" />
  <!-- K --><path style="fill:#333" d="m 90.092092,37.069842 0,3.003553 -0.970607,0 0,-8.586629 0.970607,0 0,4.346318 3.788496,-4.346318 1.252395,0 -3.099678,3.498257 3.130985,5.088372 -1.148026,0 -2.682213,-4.405212" />
  <!-- O --><path style="fill:#333" d="m 98.777382,31.347206 c -4.959863,0 -5.0325,9 0.03125,9 5.063748,0 4.928618,-9 -0.03125,-9 z m 0,0.96875 c 3.665508,0 3.773538,7.0625 0.03125,7.0625 -3.742281,0 -3.696763,-7.0625 -0.03125,-7.0625 z" />
  <!-- U --><path style="fill:#333" d="m 103.73831,31.486766 0.97061,0 0,6.030664 c 0,2.346004 3.90329,2.554413 3.90329,0 l 0,-6.030664 0.97061,0 0,6.030664 c 0,3.891065 -5.84451,3.861598 -5.84451,0 l 0,-6.030664 z" />
  <!-- L --><path style="fill:#333" d="m 112.19884,31.486766 0,7.620781 3.75718,0 0,0.965848 -4.7278,0 0,-8.586629" />
  <!-- U --><path style="fill:#333" d="m 117.08986,31.486766 0.97061,0 0,6.030664 c 0,2.346004 3.90329,2.554413 3.90329,0 l 0,-6.030664 0.97061,0 0,6.030664 c 0,3.891065 -5.84451,3.861598 -5.84451,0 l 0,-6.030664 z" />

  <!--<text style="font-size:12px;letter-spacing:3;writing-mode:lr-tb;fill:#333;font-family:FreeSerif"><tspan
       x="46" y="55">1869</tspan><tspan
       x="46" y="67">2011</tspan></text>-->
  <!-- 1 --><path style="fill:#333" d="m 47.332,47.98 0,0.168 c 0.40625,-0.164063 0.65638,-0.264 0.864,-0.264 0.344836,0 0.36,0.376099 0.36,0.564 l 0,5.436 c 0,0.621156 -0.124375,0.936 -1.14,0.936 l 0,0.18 3.312,0 0,-0.18 c -0.871094,0 -1.14,-0.09995 -1.14,-0.708 l 0,-7.2 -0.096,-0.024 -2.16,1.092 z" />
  <!-- 8 --><path style="fill:#333" d="m 58.03125,46.875 c -1.110082,0 -2.28125,0.685448 -2.28125,1.90625 0,0.813298 0.21875,1.140625 1.46875,2.25 -1.238281,0.886719 -1.53125,1.357902 -1.53125,2.15625 0,1.392818 1.187388,1.96875 2.28125,1.96875 0.796875,0 2.375,-0.306757 2.375,-2.03125 0,-0.609375 -0.09375,-1.296875 -1.875,-2.5625 0.726562,-0.398437 1.625,-0.905966 1.625,-1.96875 0,-0.906789 -0.757602,-1.71875 -2.0625,-1.71875 z m -0.09375,0.34375 c 0.906789,0 1.3125,0.65625 1.3125,1.375 0,0.626755 -0.296875,1.265625 -1.125,1.75 0,0 -1.53125,-0.84375 -1.5,-1.9375 0,-0.611175 0.483909,-1.1875 1.3125,-1.1875 z M 57.53125,51.25 c 1.533944,1.056052 1.90625,1.460577 1.90625,2.25 0,0.766262 -0.53125,1.35938 -1.34375,1.34375 -0.988768,0 -1.5,-0.827993 -1.5,-1.75 0,-1.079463 0.5,-1.46875 0.9375,-1.84375 z" />
  <!-- 6 --><path style="fill:#333" d="m 69.34375,46.78125 c -1.85251,0.06696 -4.9375,1.419613 -4.9375,4.875 0,2.126737 1.062404,3.5 2.6875,3.5 1.109815,0 2.53125,-0.735422 2.53125,-2.78125 0,-2.421673 -2.122073,-3.101226 -3.8125,-1.96875 0.09944,-1.160097 1.214685,-3.039752 3.5625,-3.4375 l -0.03125,-0.1875 z m -2.40625,3.625 c 0.77307,0.03077 1.59375,0.592654 1.59375,2.375 0,1.250391 -0.405775,2.05174 -1.3125,2.0625 -1.564453,0.01857 -2.065366,-2.920878 -1.40625,-4.0625 0.218821,-0.218821 0.661158,-0.393462 1.125,-0.375 z" />

  <!-- 9 --><path style="fill:#333" d="m 75.84375,46.875 c -1.42402,0 -2.46875,1.209424 -2.46875,2.84375 0,2.314736 2.132813,3.171875 3.9375,1.75 -0.514772,1.880563 -1.632813,3.171875 -3.625,3.5625 L 73.71875,55.25 C 76.859375,55.039063 78.5,52.713748 78.5,50.28125 78.5,48.065012 77.242323,46.875 75.84375,46.875 z M 75.75,47.21875 c 0.685308,0 1.59375,0.360145 1.59375,3.53125 -0.342505,1.182194 -2.875,1.668103 -2.875,-1.4375 0,-0.985552 0.264544,-2.09375 1.28125,-2.09375 z" />
  <line x1="39.5" y1="57.5" x2="85.5" y2="57.5" style="stroke:#333;stroke-width:1" />
  <!-- 2 --><path style="fill:#333" d="m 46.624,61.336 c 0.817592,-2.43068 3.432,-1.804976 3.432,0.132 0,1.48121 -1.176932,2.802641 -3.696,5.388 l 0,0.144 4.68,0 0.66,-1.644 -0.156,-0.06 c -0.342505,0.618718 -0.565051,0.792 -1.14,0.792 l -2.868,0 c 2.65165,-2.684796 3.552,-3.693828 3.552,-5.076 0,-2.266304 -3.887359,-3.481456 -4.716,0.264 l 0.252,0.06 z" />
  <!-- 0 --><path style="fill:#333" d="m 58.0625,58.875 c -1.803135,0 -2.78125,2.009665 -2.78125,4.09375 0,2.084085 0.915615,4.1875 2.71875,4.1875 1.803135,0 2.71875,-2.040915 2.71875,-4.125 0,-2.084085 -0.853115,-4.15625 -2.65625,-4.15625 z M 58,59.1875 c 1.443845,0 1.5625,2.678986 1.5625,3.875 0,1.196014 -0.118655,3.78125 -1.5625,3.78125 -1.443845,0 -1.5625,-2.585236 -1.5625,-3.78125 0,-1.196014 0.118655,-3.875 1.5625,-3.875 z" />
  <!-- 1 --><path style="fill:#333" d="m 65.332,59.98 0,0.168 c 0.40625,-0.164063 0.65638,-0.264 0.864,-0.264 0.344836,0 0.36,0.376099 0.36,0.564 l 0,5.436 c 0,0.621156 -0.124375,0.936 -1.14,0.936 l 0,0.18 3.312,0 0,-0.18 c -0.871094,0 -1.14,-0.09995 -1.14,-0.708 l 0,-7.2 -0.096,-0.024 -2.16,1.092 z" />
  <!-- 1 --><path style="fill:#333" d="m 74.332,59.98 0,0.168 c 0.40625,-0.164063 0.65638,-0.264 0.864,-0.264 0.344836,0 0.36,0.376099 0.36,0.564 l 0,5.436 c 0,0.621156 -0.124375,0.936 -1.14,0.936 l 0,0.18 3.312,0 0,-0.18 c -0.871094,0 -1.14,-0.09995 -1.14,-0.708 l 0,-7.2 -0.096,-0.024 -2.16,1.092 z" />
</svg>
