<?xml version="1.0" encoding="UTF-8" standalone="no"?>
<!-- Created with Inkscape (http://www.inkscape.org/) -->

<!-- Modified by me -->

<svg
   xmlns:dc="http://purl.org/dc/elements/1.1/"
   xmlns:cc="http://creativecommons.org/ns#"
   xmlns:rdf="http://www.w3.org/1999/02/22-rdf-syntax-ns#"
   xmlns:svg="http://www.w3.org/2000/svg"
   xmlns="http://www.w3.org/2000/svg"
   xmlns:sodipodi="http://sodipodi.sourceforge.net/DTD/sodipodi-0.dtd"
   xmlns:inkscape="http://www.inkscape.org/namespaces/inkscape"
   version="1.1"
   width="189"
   height="74"
   id="svg2"
   inkscape:version="0.47 r22583"
   sodipodi:docname="yliopiston_logo.svg">
  <metadata
     id="metadata54">
    <rdf:RDF>
      <cc:Work
         rdf:about="">
        <dc:format>image/svg+xml</dc:format>
        <dc:type
           rdf:resource="http://purl.org/dc/dcmitype/StillImage" />
      </cc:Work>
    </rdf:RDF>
  </metadata>
  <defs
     id="defs52">
    <inkscape:perspective
       sodipodi:type="inkscape:persp3d"
       inkscape:vp_x="0 : 37 : 1"
       inkscape:vp_y="0 : 1000 : 0"
       inkscape:vp_z="189 : 37 : 1"
       inkscape:persp3d-origin="94.5 : 24.666667 : 1"
       id="perspective56" />
  </defs>
  <sodipodi:namedview
     pagecolor="#ffffff"
     bordercolor="#666666"
     borderopacity="1"
     objecttolerance="10"
     gridtolerance="10"
     guidetolerance="10"
     inkscape:pageopacity="0"
     inkscape:pageshadow="2"
     inkscape:window-width="769"
     inkscape:window-height="510"
     id="namedview50"
     showgrid="false"
     inkscape:snap-page="true"
     inkscape:zoom="2.9365079"
     inkscape:cx="94.5"
     inkscape:cy="37"
     inkscape:window-x="0"
     inkscape:window-y="24"
     inkscape:window-maximized="0"
     inkscape:current-layer="svg2" />
  <desc
     id="desc4">Helsingin yliopiston logo. Kuvaa käytetään infotv:ssä Suomen tekijänoikeuslain sitaattioikeuden nojalla.</desc>
  <rect
     style="fill:#ffffff;fill-opacity:1;stroke:none"
     id="rect2862"
     width="189"
     height="74"
     x="0"
     y="2.0330959e-15" />
  <path
     d="m 2.3282638,24.567922 c 0,0 1.5170137,-1.200142 4.5482401,-0.87055 3.0326279,0.329578 5.2129841,1.788399 6.4207181,2.871731 1.207731,1.083319 2.495234,1.468538 3.388088,0.848313 0.710924,-0.495085 0.822882,-1.132018 -0.09516,-2.378058 -1.682149,-2.283472 -4.359312,-2.589426 -4.359312,-2.589426 0,0 2.819908,-1.602043 7.72361,0.470048 4.903705,2.072104 4.279546,3.763154 7.225407,5.320688 3.340508,1.766163 7.36815,0.495087 7.36815,0.495087 0,0 -2.961254,-1.10697 -4.50066,-3.179061 -1.262312,-1.696616 -1.214729,-2.971869 -2.435058,-4.593372 -1.451239,-1.927481 -4.460076,-3.269477 -4.460076,-3.269477 0,0 4.146599,-1.600659 9.358181,0.471434 5.211585,2.070715 5.993882,4.3542 8.76621,4.095521 2.770932,-0.258655 2.846504,-3.19298 2.605796,-4.213724 -0.450625,-1.906607 -2.108988,-3.530911 -2.108988,-3.530911 0,0 6.420721,0.682821 10.164273,4.943827 3.742152,4.261016 4.900904,10.359107 5.376719,11.865201 1.280506,4.048247 4.998867,3.059463 4.998867,3.059463 0,0 0.405842,3.807652 2.037612,5.415272 2.605792,2.565789 4.492261,2.170841 6.965105,3.931426 3.340508,2.378058 5.046449,5.814385 5.046449,5.814385 0,0 -2.534421,-1.152855 -5.35433,-1.316949 -2.818508,-0.165509 -3.861104,0.611883 -3.861104,0.611883 0,0 -0.82988,-2.543529 -4.003854,-2.896769 -3.175371,-0.353228 -3.032625,1.059694 -5.165401,1.083332 -1.872477,0.02076 -4.00245,-0.564609 -4.00245,-0.564609 0,0 1.697541,2.52128 2.913672,4.14282 1.658357,2.213925 1.231523,4.215094 1.231523,4.215094 0,0 -2.132775,-2.63809 -4.903703,-3.626861 -2.772327,-0.988759 -6.136626,-1.364248 -7.699821,-2.141627 -1.563197,-0.777378 -2.913678,-1.859322 -2.913678,-1.859322 0,0 -0.307883,1.930233 1.5632,3.483639 1.871075,1.553355 3.411879,1.577006 5.851135,5.014733 2.440656,3.436365 2.416866,5.603016 2.416866,5.603016 0,0 -3.687574,-2.950995 -7.036479,-3.767331 -3.672185,-0.894199 -4.746967,-0.225288 -5.638422,-0.799627 -1.42045,-0.919236 -1.96624,-3.601836 -3.269135,-3.79098 -1.302897,-0.18772 -3.411881,0.730117 -5.022658,0.801052 -1.610776,0.07088 -4.145198,-0.400526 -6.703408,-2.849494 -2.55961,-2.447581 -3.294326,-5.390235 -3.294326,-5.390235 0,0 2.393075,1.764774 4.667196,1.953894 2.27552,0.187733 4.194178,-0.988771 4.194178,-0.988771 0,0 -3.032626,-2.001169 -3.814924,-3.554549 -0.780899,-1.554769 -0.436632,-4.059365 -1.823495,-5.014746 -2.393075,-1.647953 -4.714777,0.140457 -6.776181,0.116833 -2.061403,-0.02224 -4.572033,-1.176491 -6.396928,-3.483638 C 9.6964168,32.219417 8.985492,28.523022 7.4460884,27.016927 5.9052841,25.509432 2.3282675,24.567946 2.3282675,24.567946"
     style="fill:#8c8a87"
     id="path6" />
  <rect
     style="fill:#1e1c77"
     x="37.656"
     y="65.879"
     width="6.433"
     height="6.433"
     id="rect8" />
  <rect
     style="fill:#1e1c77"
     x="37.656"
     y="33.395"
     width="6.433"
     height="6.433"
     id="rect10" />
  <rect
     style="fill:#1e1c77"
     x="37.656"
     y="0.911"
     width="6.433"
     height="6.433"
     id="rect12" />
  <!--<text x="82.742043" y="40.483315" transform="scale(0.99360437,1.0064368)"
     style="font-size:9.5px;writing-mode:lr-tb;fill:#1e1c77;font-family:Sans"><tspan
       dx="0 0.20052277 -0.15039209 -0.48116913 0.09040644 0.75238836 0.49145201 0.5818584 0.69197476 0 0.49123812 0.22066064 0.14053714 0.46145916 0.5415827 0.29092923 0.0098549463 -0.87970674 -0.089978494"
       x="82.742043" y="40.483315">HELSINGIN YLIOPISTO</tspan></text>-->
  <!-- H -->
  <path
     style="fill:#1e1c77"
     d="m 82.798724,33.773782 0.931019,0 0,2.857141 3.383009,0 0,-2.857141 0.931019,0 0,6.970116 -0.931019,0 0,-3.319325 -3.383009,0 0,3.319325 -0.931019,0"
     id="path14" />
  <!-- E -->
  <path
     style="fill:#1e1c77"
     d="m 90.095831,33.773782 4.350901,0 0,0.793651 -3.419881,0 0,2.06349 3.277002,0 0,0.79365 -3.277002,0 0,2.525674 3.502844,0 0,0.793651 -4.433864,0"
     id="path16" />
  <!-- L -->
  <path
     style="fill:#1e1c77"
     d="m 95.919672,33.773782 0.931019,0 0,6.176465 3.350749,0 0,0.793651 -4.281768,0"
     id="path18" />
  <!-- S -->
  <path
     style="fill:#1e1c77"
     d="m 100.41931,39.46472 c 1.79853,1.038381 3.84391,0.833017 3.84391,-0.574229 0,-2.08179 -3.87156,-0.510075 -3.87156,-3.253966 0,-2.01847 2.27548,-2.357318 4.42925,-1.633985 l 0,0.919701 c -1.41406,-0.742188 -3.49362,-0.762858 -3.49362,0.639588 0,0.979726 0.89386,0.996158 1.87586,1.195144 1.02446,0.20759 2.03257,0.669576 2.03257,2.06349 0,2.482191 -3.07422,2.28328 -4.81641,1.615311 l 0,-0.971054 z"
     id="path20" />
  <!-- I -->
  <path
     style="fill:#1e1c77"
     d="m 106.77738,33.773782 0.93102,0 0,6.970116 -0.93102,0"
     id="path22" />
  <!-- N -->
  <path
     style="fill:#1e1c77"
     d="m 110.30879,33.773782 1.25365,0 3.05116,5.830995 0,-5.830995 0.90337,0 0,6.970116 -1.25365,0 -3.05116,-5.830995 0,5.830995 -0.90337,0"
     id="path24" />
  <!-- G -->
  <path
     style="fill:#1e1c77"
     d="m 123.29212,35.314397 c -1.44531,-1.289062 -4.70506,-1.68843 -4.84868,1.951446 0,3.454965 3.06757,3.022712 4.10663,2.48365 l 0,-1.872073 -1.52097,0 0,-0.774976 2.44276,0 0,2.992528 c -2.0913,1.451785 -6.01013,1.194019 -6.01013,-2.829129 0,-3.879155 3.62727,-4.220805 5.83039,-2.95518 l 0,1.003734 z"
     id="path26" />
  <!-- I -->
  <path
     style="fill:#1e1c77"
     d="m 125.75534,33.773782 0.93101,0 0,6.970116 -0.93101,0"
     id="path28" />
  <!-- N -->
  <path
     style="fill:#1e1c77"
     d="m 129.22672,33.773782 1.25365,0 3.05116,5.830995 0,-5.830995 0.90337,0 0,6.970116 -1.25365,0 -3.05116,-5.830995 0,5.830995 -0.90337,0"
     id="path30" />
  <!-- Y -->
  <path
     style="fill:#1e1c77"
     d="m 138.83604,33.773782 1.00015,0 1.90813,2.866478 1.89431,-2.866478 1.00015,0 -2.43356,3.650791 0,3.319325 -0.93563,0 0,-3.319325"
     id="path32" />
  <!-- L -->
  <path
     style="fill:#1e1c77"
     d="m 145.77061,33.773782 0.93102,0 0,6.176465 3.35074,0 0,0.793651 -4.28176,0"
     id="path34" />
  <!-- I -->
  <path
     style="fill:#1e1c77"
     d="m 151.16451,33.773782 0.93102,0 0,6.970116 -0.93102,0"
     id="path36" />
  <!-- O -->
  <path
     style="fill:#1e1c77"
     d="m 157.1797,33.672093 c -1.68608,0 -3.17438,1.205527 -3.1875,3.625 0.0131,2.419473 1.50142,3.59375 3.1875,3.59375 1.6936,0 3.1875,-1.152248 3.1875,-3.59375 0,-2.441502 -1.4939,-3.625 -3.1875,-3.625 z m 0,0.75 c 1.22778,0 2.1875,0.935619 2.1875,2.875 0,1.939381 -0.95972,2.846085 -2.1875,2.84375 -1.22778,-0.0023 -2.1875,-0.935619 -2.1875,-2.875 0,-1.939381 0.95972,-2.84375 2.1875,-2.84375 z"
     id="path38" />
  <!-- P -->
  <path
     style="fill:#1e1c77"
     d="M 162.375 33.78125 L 162.375 40.75 L 163.3125 40.75 L 163.3125 37.9375 C 164.20854 37.9375 165.51715 38.101878 166.21875 37.40625 C 167.13718 36.495631 166.90887 34.912056 166.21875 34.3125 C 165.48363 33.673856 164.68601 33.78125 162.375 33.78125 z M 163.3125 34.5625 C 164.70869 34.5625 165.00471 34.473202 165.46875 34.875 C 165.90439 35.252205 165.99437 36.286882 165.46875 36.8125 C 165.00028 37.280967 164.14434 37.15625 163.3125 37.15625 L 163.3125 34.5625 z "
     id="path40" />
  <!-- I -->
  <path
     style="fill:#1e1c77"
     d="m 168.3605,33.773782 0.93101,0 0,6.970116 -0.93101,0"
     id="path42" />
  <!-- S -->
  <path
     style="fill:#1e1c77"
     d="m 170.62217,39.46472 c 1.79853,1.038381 3.84391,0.833017 3.84391,-0.574229 0,-2.08179 -3.87156,-0.510075 -3.87156,-3.253966 0,-2.01847 2.27548,-2.357318 4.42925,-1.633985 l 0,0.919701 c -1.41406,-0.742188 -3.49362,-0.762858 -3.49362,0.639588 0,0.979726 0.89386,0.996158 1.87586,1.195144 1.02446,0.20759 2.03257,0.669576 2.03257,2.06349 0,2.482191 -3.07422,2.28328 -4.81641,1.615311 l 0,-0.971054 z"
     id="path44" />
  <!-- T -->
  <path
     style="fill:#1e1c77"
     d="m 175.31768,33.773782 5.82117,0 0,0.793651 -2.44276,0 0,6.176465 -0.93563,0 0,-6.176465 -2.44278,0"
     id="path46" />
  <!-- O -->
  <path
     style="fill:#1e1c77"
     d="M 184.75 33.65625 C 183.06392 33.65625 181.57562 34.861777 181.5625 37.28125 C 181.5756 39.700723 183.06392 40.875 184.75 40.875 C 186.4436 40.875 187.9375 39.722752 187.9375 37.28125 C 187.9375 34.839748 186.4436 33.65625 184.75 33.65625 z M 184.75 34.40625 C 185.97778 34.40625 186.9375 35.341869 186.9375 37.28125 C 186.9375 39.220631 185.97778 40.127335 184.75 40.125 C 183.52222 40.1227 182.5625 39.189381 182.5625 37.25 C 182.5625 35.310619 183.52222 34.40625 184.75 34.40625 z "
     id="path48" />
</svg>
