<?xml version="1.0" encoding="UTF-8" standalone="no"?>
<!-- Created with Inkscape (http://www.inkscape.org/) -->

<svg
   xmlns:dc="http://purl.org/dc/elements/1.1/"
   xmlns:cc="http://creativecommons.org/ns#"
   xmlns:rdf="http://www.w3.org/1999/02/22-rdf-syntax-ns#"
   xmlns:svg="http://www.w3.org/2000/svg"
   xmlns="http://www.w3.org/2000/svg"
   xmlns:xlink="http://www.w3.org/1999/xlink"
   version="1.1"
   width="36"
   height="36"
   id="svg1901">
  <defs
     id="defs1903">
    <linearGradient
       id="linearGradient3879">
      <stop
         id="stop3881"
         style="stop-color:#bebebe;stop-opacity:1"
         offset="0" />
      <stop
         id="stop3883"
         style="stop-color:#f8f7f7;stop-opacity:1"
         offset="1" />
    </linearGradient>
    <linearGradient
       id="linearGradient3868">
      <stop
         id="stop3870"
         style="stop-color:#c7c7c7;stop-opacity:1"
         offset="0" />
      <stop
         id="stop3872"
         style="stop-color:#ffffff;stop-opacity:1"
         offset="1" />
    </linearGradient>
    <linearGradient
       id="linearGradient3856">
      <stop
         id="stop3858"
         style="stop-color:#73d216;stop-opacity:1"
         offset="0" />
      <stop
         id="stop3860"
         style="stop-color:#4e9a06;stop-opacity:1"
         offset="1" />
    </linearGradient>
    <linearGradient
       id="linearGradient3838">
      <stop
         id="stop3840"
         style="stop-color:#ffffff;stop-opacity:1"
         offset="0" />
      <stop
         id="stop3842"
         style="stop-color:#8a8a8a;stop-opacity:1"
         offset="1" />
    </linearGradient>
    <linearGradient
       id="linearGradient3010">
      <stop
         id="stop3012"
         style="stop-color:#2e3436;stop-opacity:1"
         offset="0" />
      <stop
         id="stop3014"
         style="stop-color:#2e3436;stop-opacity:0"
         offset="1" />
    </linearGradient>
    <linearGradient
       id="linearGradient3002">
      <stop
         id="stop3004"
         style="stop-color:#888a85;stop-opacity:1"
         offset="0" />
      <stop
         id="stop3006"
         style="stop-color:#555753;stop-opacity:1"
         offset="1" />
    </linearGradient>
    <linearGradient
       id="linearGradient2926">
      <stop
         id="stop2928"
         style="stop-color:#2e3436;stop-opacity:1"
         offset="0" />
      <stop
         id="stop2930"
         style="stop-color:#2e3436;stop-opacity:0"
         offset="1" />
    </linearGradient>
    <linearGradient
       id="linearGradient2933">
      <stop
         id="stop2935"
         style="stop-color:#888a85;stop-opacity:1"
         offset="0" />
      <stop
         id="stop2937"
         style="stop-color:#555753;stop-opacity:1"
         offset="1" />
    </linearGradient>
    <linearGradient
       x1="9.328125"
       y1="36.703125"
       x2="9.328125"
       y2="35.794724"
       id="linearGradient2966"
       xlink:href="#linearGradient2865"
       gradientUnits="userSpaceOnUse"
       gradientTransform="translate(0,1)" />
    <linearGradient
       id="linearGradient2865">
      <stop
         id="stop2867"
         style="stop-color:#73d216;stop-opacity:1"
         offset="0" />
      <stop
         id="stop2869"
         style="stop-color:#4e9a06;stop-opacity:1"
         offset="1" />
    </linearGradient>
    <linearGradient
       x1="36.315083"
       y1="33.791672"
       x2="36.315083"
       y2="36.833359"
       id="linearGradient2968"
       xlink:href="#linearGradient2875"
       gradientUnits="userSpaceOnUse"
       gradientTransform="matrix(0.863892,0,0,1.49999,-21.87231,-16.24968)" />
    <linearGradient
       id="linearGradient2875">
      <stop
         id="stop2877"
         style="stop-color:#2e3436;stop-opacity:1"
         offset="0" />
      <stop
         id="stop2879"
         style="stop-color:#888a85;stop-opacity:1"
         offset="1" />
    </linearGradient>
    <linearGradient
       x1="9.328125"
       y1="36.108902"
       x2="9.328125"
       y2="37.344215"
       id="linearGradient2970"
       xlink:href="#linearGradient2954"
       gradientUnits="userSpaceOnUse" />
    <linearGradient
       id="linearGradient2954">
      <stop
         id="stop2956"
         style="stop-color:#ffffff;stop-opacity:1"
         offset="0" />
      <stop
         id="stop2958"
         style="stop-color:#ffffff;stop-opacity:0"
         offset="1" />
    </linearGradient>
    <linearGradient
       x1="7.5625"
       y1="8.8125"
       x2="7.5625"
       y2="33.576405"
       id="linearGradient2841"
       xlink:href="#linearGradient2835"
       gradientUnits="userSpaceOnUse"
       gradientTransform="matrix(0.91105012,0,0,0.91105012,35.428086,563.49762)" />
    <linearGradient
       id="linearGradient2835">
      <stop
         id="stop2837"
         style="stop-color:#878787;stop-opacity:1"
         offset="0" />
      <stop
         id="stop2839"
         style="stop-color:#ffffff;stop-opacity:1"
         offset="1" />
    </linearGradient>
    <linearGradient
       x1="13.258974"
       y1="3.9853134"
       x2="19.967396"
       y2="39.737221"
       id="linearGradient6129"
       xlink:href="#linearGradient6123"
       gradientUnits="userSpaceOnUse"
       gradientTransform="matrix(0.91105012,0,0,0.8850205,36.325379,563.61475)" />
    <linearGradient
       id="linearGradient6123">
      <stop
         id="stop6125"
         style="stop-color:#eeeeee;stop-opacity:1"
         offset="0" />
      <stop
         id="stop6127"
         style="stop-color:#b7b7b7;stop-opacity:1"
         offset="1" />
    </linearGradient>
    <linearGradient
       id="linearGradient2843">
      <stop
         id="stop2845"
         style="stop-color:#000000;stop-opacity:1"
         offset="0" />
      <stop
         id="stop2847"
         style="stop-color:#2e3436;stop-opacity:1"
         offset="1" />
    </linearGradient>
    <linearGradient
       id="linearGradient5048">
      <stop
         id="stop5050"
         style="stop-color:#000000;stop-opacity:0"
         offset="0" />
      <stop
         id="stop5056"
         style="stop-color:#000000;stop-opacity:1"
         offset="0.5" />
      <stop
         id="stop5052"
         style="stop-color:#000000;stop-opacity:0"
         offset="1" />
    </linearGradient>
    <linearGradient
       id="linearGradient5060">
      <stop
         id="stop5062"
         style="stop-color:#000000;stop-opacity:1"
         offset="0" />
      <stop
         id="stop5064"
         style="stop-color:#000000;stop-opacity:0"
         offset="1" />
    </linearGradient>
    <radialGradient
       cx="605.71429"
       cy="486.64789"
       r="117.14286"
       fx="605.71429"
       fy="486.64789"
       id="radialGradient3686"
       xlink:href="#linearGradient5060"
       gradientUnits="userSpaceOnUse"
       gradientTransform="matrix(-0.0628545,0,0,0.03294117,46.70505,23.92219)" />
    <filter
       x="-0.061744187"
       y="-2.1240001"
       width="1.1234884"
       height="5.2479997"
       color-interpolation-filters="sRGB"
       id="filter3806">
      <feGaussianBlur
         id="feGaussianBlur3808"
         stdDeviation="1.1174812" />
    </filter>
    <linearGradient
       x1="37.211494"
       y1="36.354836"
       x2="37.211494"
       y2="37.51897"
       id="linearGradient3834"
       xlink:href="#linearGradient3838"
       gradientUnits="userSpaceOnUse"
       gradientTransform="matrix(0.75560209,0,0,0.75560209,37.716839,568.16178)" />
    <linearGradient
       x1="37.211494"
       y1="36.354836"
       x2="37.211494"
       y2="37.51897"
       id="linearGradient3846"
       xlink:href="#linearGradient3838"
       gradientUnits="userSpaceOnUse"
       gradientTransform="matrix(0.75560209,0,0,0.75560209,41.467961,568.16178)" />
    <linearGradient
       x1="9.328125"
       y1="36.108902"
       x2="9.328125"
       y2="37.344215"
       id="linearGradient3849"
       xlink:href="#linearGradient2954"
       gradientUnits="userSpaceOnUse"
       gradientTransform="matrix(1.0850548,0,0,1.0850548,-0.4773242,557.02676)" />
    <linearGradient
       x1="36.315083"
       y1="34.36668"
       x2="36.315083"
       y2="36.633354"
       id="linearGradient3854"
       xlink:href="#linearGradient2875"
       gradientUnits="userSpaceOnUse"
       gradientTransform="matrix(0.78704891,0,0,1.366566,14.590266,547.78229)" />
    <linearGradient
       x1="9.0913725"
       y1="598.9931"
       x2="9.0282383"
       y2="595.32916"
       id="linearGradient3874"
       xlink:href="#linearGradient3868"
       gradientUnits="userSpaceOnUse"
       gradientTransform="matrix(0.83963512,0,0,0.83963512,34.917815,94.887331)" />
    <linearGradient
       x1="13.258974"
       y1="3.9853134"
       x2="19.967396"
       y2="39.737221"
       id="linearGradient3888"
       xlink:href="#linearGradient6123"
       gradientUnits="userSpaceOnUse"
       gradientTransform="matrix(0.91105012,0,0,0.8850205,36.325379,563.61475)" />
    <linearGradient
       x1="7.5625"
       y1="8.8125"
       x2="7.5625"
       y2="33.576405"
       id="linearGradient3890"
       xlink:href="#linearGradient2835"
       gradientUnits="userSpaceOnUse"
       gradientTransform="matrix(0.91105012,0,0,0.91105012,35.428086,563.49762)" />
    <linearGradient
       x1="9.0913725"
       y1="598.9931"
       x2="9.0282383"
       y2="595.32916"
       id="linearGradient3892"
       xlink:href="#linearGradient3868"
       gradientUnits="userSpaceOnUse"
       gradientTransform="matrix(0.83963512,0,0,0.83963512,34.917815,94.887331)" />
    <linearGradient
       x1="36.315083"
       y1="34.36668"
       x2="36.315083"
       y2="36.633354"
       id="linearGradient3894"
       xlink:href="#linearGradient2875"
       gradientUnits="userSpaceOnUse"
       gradientTransform="matrix(0.78704891,0,0,1.366566,14.590266,547.78229)" />
    <linearGradient
       x1="37.211494"
       y1="36.354836"
       x2="37.211494"
       y2="37.51897"
       id="linearGradient3896"
       xlink:href="#linearGradient3838"
       gradientUnits="userSpaceOnUse"
       gradientTransform="matrix(0.75560209,0,0,0.75560209,41.467961,568.16178)" />
    <linearGradient
       x1="37.211494"
       y1="36.354836"
       x2="37.211494"
       y2="37.51897"
       id="linearGradient3898"
       xlink:href="#linearGradient3838"
       gradientUnits="userSpaceOnUse"
       gradientTransform="matrix(0.75560209,0,0,0.75560209,37.716839,568.16178)" />
    <linearGradient
       x1="13.258974"
       y1="3.9853134"
       x2="19.967396"
       y2="39.737221"
       id="linearGradient3922"
       xlink:href="#linearGradient6123"
       gradientUnits="userSpaceOnUse"
       gradientTransform="matrix(0.91105012,0,0,0.8850205,36.325379,563.61475)" />
    <linearGradient
       x1="7.5625"
       y1="8.8125"
       x2="7.5625"
       y2="33.576405"
       id="linearGradient3924"
       xlink:href="#linearGradient2835"
       gradientUnits="userSpaceOnUse"
       gradientTransform="matrix(0.91105012,0,0,0.91105012,35.428086,563.49762)" />
    <linearGradient
       x1="9.0913725"
       y1="598.9931"
       x2="9.0282383"
       y2="595.32916"
       id="linearGradient3926"
       xlink:href="#linearGradient3868"
       gradientUnits="userSpaceOnUse"
       gradientTransform="matrix(0.83963512,0,0,0.83963512,34.917815,94.887331)" />
    <linearGradient
       x1="36.315083"
       y1="34.36668"
       x2="36.315083"
       y2="36.633354"
       id="linearGradient3928"
       xlink:href="#linearGradient2875"
       gradientUnits="userSpaceOnUse"
       gradientTransform="matrix(0.78704891,0,0,1.366566,14.590266,547.78229)" />
    <linearGradient
       x1="37.211494"
       y1="36.354836"
       x2="37.211494"
       y2="37.51897"
       id="linearGradient3930"
       xlink:href="#linearGradient3838"
       gradientUnits="userSpaceOnUse"
       gradientTransform="matrix(0.75560209,0,0,0.75560209,41.467961,568.16178)" />
    <linearGradient
       x1="37.211494"
       y1="36.354836"
       x2="37.211494"
       y2="37.51897"
       id="linearGradient3932"
       xlink:href="#linearGradient3838"
       gradientUnits="userSpaceOnUse"
       gradientTransform="matrix(0.75560209,0,0,0.75560209,37.716839,568.16178)" />
    <linearGradient
       x1="37.211494"
       y1="36.354836"
       x2="37.211494"
       y2="37.51897"
       id="linearGradient3938"
       xlink:href="#linearGradient3838"
       gradientUnits="userSpaceOnUse"
       gradientTransform="matrix(0.9925561,0,0,1.0054551,-14.206052,1007.3889)" />
    <linearGradient
       x1="37.211494"
       y1="36.354836"
       x2="37.211494"
       y2="37.51897"
       id="linearGradient3941"
       xlink:href="#linearGradient3838"
       gradientUnits="userSpaceOnUse"
       gradientTransform="matrix(0.9925561,0,0,1.0054551,-10.206053,1007.3889)" />
    <linearGradient
       x1="9.0913725"
       y1="598.9931"
       x2="9.0282383"
       y2="595.32916"
       id="linearGradient3944"
       xlink:href="#linearGradient3868"
       gradientUnits="userSpaceOnUse"
       gradientTransform="matrix(0.6912099,0,0,0.61441085,-0.28771295,678.199)" />
    <linearGradient
       x1="36.315083"
       y1="34.36668"
       x2="36.315083"
       y2="36.633354"
       id="linearGradient3946"
       xlink:href="#linearGradient2875"
       gradientUnits="userSpaceOnUse"
       gradientTransform="matrix(0.64791953,0,0,0.99999743,-17.02189,1009.6091)" />
    <linearGradient
       x1="7.5625"
       y1="8.8125"
       x2="7.5625"
       y2="33.576405"
       id="linearGradient3949"
       xlink:href="#linearGradient2835"
       gradientUnits="userSpaceOnUse"
       gradientTransform="matrix(0.87061871,0,0,0.77209173,-6.713404,1015.8928)" />
    <linearGradient
       x1="13.258974"
       y1="3.9853134"
       x2="19.967396"
       y2="39.737221"
       id="linearGradient3953"
       xlink:href="#linearGradient6123"
       gradientUnits="userSpaceOnUse"
       gradientTransform="matrix(0.87252287,0,0,0.84562666,-5.947399,1015.3038)" />
    <linearGradient
       x1="13.258974"
       y1="3.9853134"
       x2="19.967396"
       y2="39.737221"
       id="linearGradient3984"
       xlink:href="#linearGradient6123"
       gradientUnits="userSpaceOnUse"
       gradientTransform="matrix(0.87252287,0,0,0.84562666,-5.947399,1015.3038)" />
    <linearGradient
       x1="7.5625"
       y1="8.8125"
       x2="7.5625"
       y2="33.576405"
       id="linearGradient3986"
       xlink:href="#linearGradient2835"
       gradientUnits="userSpaceOnUse"
       gradientTransform="matrix(0.87061871,0,0,0.77209173,-6.713404,1015.8928)" />
    <linearGradient
       x1="9.0913725"
       y1="598.9931"
       x2="9.0282383"
       y2="595.32916"
       id="linearGradient3988"
       xlink:href="#linearGradient3868"
       gradientUnits="userSpaceOnUse"
       gradientTransform="matrix(0.6912099,0,0,0.61441085,-0.28771295,678.199)" />
    <linearGradient
       x1="36.315083"
       y1="34.36668"
       x2="36.315083"
       y2="36.633354"
       id="linearGradient3990"
       xlink:href="#linearGradient2875"
       gradientUnits="userSpaceOnUse"
       gradientTransform="matrix(0.64791953,0,0,0.99999743,-17.02189,1009.6091)" />
    <linearGradient
       x1="37.211494"
       y1="36.354836"
       x2="37.211494"
       y2="37.51897"
       id="linearGradient3992"
       xlink:href="#linearGradient3838"
       gradientUnits="userSpaceOnUse"
       gradientTransform="matrix(0.9925561,0,0,1.0054551,-10.206053,1007.3889)" />
    <linearGradient
       x1="37.211494"
       y1="36.354836"
       x2="37.211494"
       y2="37.51897"
       id="linearGradient3994"
       xlink:href="#linearGradient3838"
       gradientUnits="userSpaceOnUse"
       gradientTransform="matrix(0.9925561,0,0,1.0054551,-14.206052,1007.3889)" />
    <linearGradient
       x1="37.211494"
       y1="36.354836"
       x2="37.211494"
       y2="37.51897"
       id="linearGradient4001"
       xlink:href="#linearGradient3838"
       gradientUnits="userSpaceOnUse"
       gradientTransform="matrix(0.9925561,0,0,1.0054551,-13.713408,1007.142)" />
    <linearGradient
       x1="37.211494"
       y1="36.354836"
       x2="37.211494"
       y2="37.51897"
       id="linearGradient4004"
       xlink:href="#linearGradient3838"
       gradientUnits="userSpaceOnUse"
       gradientTransform="matrix(0.9925561,0,0,1.0054551,-9.7134092,1007.142)" />
    <linearGradient
       x1="37.943741"
       y1="34.323311"
       x2="37.858479"
       y2="35.500092"
       id="linearGradient4009"
       xlink:href="#linearGradient3838"
       gradientUnits="userSpaceOnUse"
       gradientTransform="matrix(0.64791953,0,0,0.99999743,-15.529248,1009.3622)" />
    <linearGradient
       x1="7.5625"
       y1="8.8125"
       x2="7.5625"
       y2="33.576405"
       id="linearGradient4012"
       xlink:href="#linearGradient2835"
       gradientUnits="userSpaceOnUse"
       gradientTransform="matrix(0.87061871,0,0,0.77209173,-6.2207607,1015.6459)" />
    <linearGradient
       x1="13.258974"
       y1="3.9853134"
       x2="19.967396"
       y2="39.737221"
       id="linearGradient4016"
       xlink:href="#linearGradient6123"
       gradientUnits="userSpaceOnUse"
       gradientTransform="matrix(0.87252287,0,0,0.84562666,-5.4547557,1015.0569)" />
    <linearGradient
       x1="15"
       y1="1032.3622"
       x2="15"
       y2="1047.3622"
       id="linearGradient3897"
       xlink:href="#linearGradient3879"
       gradientUnits="userSpaceOnUse"
       gradientTransform="translate(0,-1016.3622)" />
  </defs>
  <metadata
     id="metadata1906">
    <rdf:RDF>
      <cc:Work
         rdf:about="">
        <dc:format>image/svg+xml</dc:format>
        <dc:type
           rdf:resource="http://purl.org/dc/dcmitype/StillImage" />
        <dc:title></dc:title>
      </cc:Work>
    </rdf:RDF>
  </metadata>
  <g
     transform="translate(0,-1016.3622)"
     id="layer1">
    <rect
       width="35.165924"
       height="2.0200109"
       x="12.942594"
       y="599.07654"
       transform="matrix(0.87365061,0,0,0.53497857,-8.6164664,727.22157)"
       id="rect3028"
       style="fill:#2e3436;fill-opacity:1;fill-rule:evenodd;stroke:none;filter:url(#filter3806)" />
    <rect
       width="28.999998"
       height="29.000002"
       rx="1.3025206"
       ry="1.2623694"
       x="3.5"
       y="1018.8622"
       id="rect4307"
       style="fill:url(#linearGradient4016);fill-opacity:1;fill-rule:nonzero;stroke:#8c8989;stroke-width:1;stroke-linecap:butt;stroke-linejoin:round;stroke-miterlimit:4;stroke-opacity:1;stroke-dasharray:none;stroke-dashoffset:0" />
    <rect
       width="24"
       height="20.000017"
       rx="0.5000174"
       ry="0.5000174"
       x="6"
       y="1021.3622"
       id="rect5197"
       style="fill:#f2f2f2;fill-opacity:1;fill-rule:nonzero;stroke:none" />
    <rect
       width="25"
       height="21.000017"
       rx="1.0000174"
       ry="1.0000174"
       x="5.5"
       y="1020.8622"
       id="rect2833"
       style="opacity:0.7;fill:none;stroke:url(#linearGradient4012);stroke-width:1;stroke-linecap:butt;stroke-linejoin:round;stroke-miterlimit:4;stroke-opacity:1;stroke-dasharray:none;stroke-dashoffset:0" />
    <rect
       width="3"
       height="2"
       rx="0.56038487"
       ry="0.50000209"
       x="6.5"
       y="1043.8622"
       id="rect2855"
       style="fill:#ffffff;fill-opacity:1;fill-rule:nonzero;stroke:url(#linearGradient4009);stroke-width:1;stroke-linecap:round;stroke-linejoin:miter;stroke-miterlimit:4;stroke-opacity:1;stroke-dasharray:none;stroke-dashoffset:0" />
    <path
       d="m 27.884617,1043.8622 c -0.204357,0 -0.384614,0.1826 -0.384614,0.3896 l 0,1.2208 c 0,0.207 0.180257,0.3896 0.384614,0.3896 l 1.230772,0 c 0.204355,0 0.384614,-0.1826 0.384614,-0.3896 l 0,-1.2208 c 0,-0.207 -0.180259,-0.3896 -0.384614,-0.3896 l -1.230772,0 z"
       id="path3844"
       style="color:#000000;fill:#ffffff;fill-opacity:1;stroke:url(#linearGradient4004);stroke-width:1;stroke-linecap:square;stroke-linejoin:round;stroke-miterlimit:4;stroke-opacity:1;stroke-dasharray:none;stroke-dashoffset:1.5;marker:none;visibility:visible;display:inline;overflow:visible" />
    <path
       d="m 23.884618,1043.8622 c -0.204356,0 -0.384615,0.1826 -0.384615,0.3896 l 0,1.2208 c 0,0.207 0.180259,0.3896 0.384615,0.3896 l 1.230771,0 c 0.204357,0 0.384614,-0.1826 0.384614,-0.3896 l 0,-1.2208 c 0,-0.207 -0.180257,-0.3896 -0.384614,-0.3896 l -1.230771,0 z"
       id="path3775"
       style="color:#000000;fill:#ffffff;fill-opacity:1;stroke:url(#linearGradient4001);stroke-width:1;stroke-linecap:square;stroke-linejoin:round;stroke-miterlimit:4;stroke-opacity:1;stroke-dasharray:none;stroke-dashoffset:1.5;marker:none;visibility:visible;display:inline;overflow:visible" />
    <path
       d="m 19.4375,1023.8438 a 0.19764913,0.19764913 0 0 0 -0.03125,0.031 c -0.09244,0.074 -0.227091,0.1647 -0.34375,0.2812 -0.0663,0.066 -0.269228,0.1904 -0.5,0.375 -0.111571,0.089 -0.270019,0.2114 -0.46875,0.3438 -0.09047,0.068 -0.184041,0.1233 -0.25,0.1562 a 0.19764913,0.19764913 0 0 0 -0.03125,0.031 0.19764913,0.19764913 0 0 0 -0.03125,0.031 0.19764913,0.19764913 0 0 0 -0.03125,0.031 0.19764913,0.19764913 0 0 0 0,0.063 0.19764913,0.19764913 0 0 0 0,0.063 0.19764913,0.19764913 0 0 0 0,0.031 c 0.166416,0.523 0.403292,0.9248 0.90625,1.6563 a 0.19764913,0.19764913 0 0 0 0.03125,0.031 0.19764913,0.19764913 0 0 0 0.0625,0.031 0.19764913,0.19764913 0 0 0 0.0625,0 0.19764913,0.19764913 0 0 0 0.03125,0 0.19764913,0.19764913 0 0 0 0.09375,-0.031 c 0.662602,-0.5941 0.698728,-0.6613 1.46875,-1.25 a 0.19764913,0.19764913 0 0 0 0.03125,-0.031 0.19764913,0.19764913 0 0 0 0.03125,-0.094 0.19764913,0.19764913 0 0 0 0,-0.063 0.19764913,0.19764913 0 0 0 0,-0.031 0.19764913,0.19764913 0 0 0 0,-0.031 c -0.130208,-0.2605 -0.227558,-0.4179 -0.28125,-0.5 -0.0072,-0.014 -0.02469,-0.018 -0.03125,-0.031 -0.118948,-0.2375 -0.140645,-0.2794 -0.3125,-0.6875 a 0.19764913,0.19764913 0 0 0 0,-0.031 c -0.0433,-0.087 -0.08077,-0.1394 -0.125,-0.25 a 0.19764913,0.19764913 0 0 0 -0.0625,-0.094 0.19764913,0.19764913 0 0 0 -0.0625,-0.031 0.19764913,0.19764913 0 0 0 -0.03125,0 0.19764913,0.19764913 0 0 0 -0.0625,0 0.19764913,0.19764913 0 0 0 -0.0625,0 z m -0.65625,4.6562 c -0.160466,0 -0.312045,0.062 -0.53125,0.1562 -0.219205,0.094 -0.50023,0.2011 -0.8125,0.375 -0.624541,0.3479 -1.439275,0.8725 -2.375,1.5 a 0.19764913,0.19764913 0 0 0 -0.0625,0.094 0.19764913,0.19764913 0 0 0 0,0.031 0.19764913,0.19764913 0 0 0 0,0.031 l -0.03125,0.6563 a 0.19764913,0.19764913 0 0 0 0,0.062 0.19764913,0.19764913 0 0 0 0.03125,0.063 0.19764913,0.19764913 0 0 0 0.03125,0.031 0.19764913,0.19764913 0 0 0 0.09375,0.031 0.19764913,0.19764913 0 0 0 0.0625,0 0.19764913,0.19764913 0 0 0 0.03125,0 0.19764913,0.19764913 0 0 0 0.03125,0 c 0.670867,-0.3638 1.039793,-0.5881 1.25,-0.6874 0.210207,-0.099 0.227284,-0.094 0.3125,-0.094 0.04274,0 0.05013,0.014 0.0625,0.031 0.01237,0.018 0.03125,0.075 0.03125,0.1876 0,0.2667 -0.06545,0.5487 -0.40625,1.8437 -0.534495,1.9901 -0.79619,2.9844 -0.9375,3.5625 -0.14131,0.5781 -0.15625,0.7753 -0.15625,1.0625 0,0.3024 0.0602,0.5501 0.1875,0.75 0.127297,0.1999 0.328735,0.3437 0.5625,0.3437 0.485212,0 1.069561,-0.3163 2.28125,-1.0937 0.419076,-0.2646 0.886136,-0.5224 1.3125,-0.8125 0.0119,-0.01 0.01937,-0.023 0.03125,-0.031 0.209484,-0.1215 0.393163,-0.2859 0.59375,-0.4063 a 0.19764913,0.19764913 0 0 0 0.03125,0 0.19764913,0.19764913 0 0 0 0.03125,-0.031 0.19764913,0.19764913 0 0 0 0.03125,-0.094 l 0.09375,-0.625 a 0.19764913,0.19764913 0 0 0 0,-0.031 0.19764913,0.19764913 0 0 0 0,-0.062 0.19764913,0.19764913 0 0 0 -0.03125,-0.063 0.19764913,0.19764913 0 0 0 -0.03125,-0.031 0.19764913,0.19764913 0 0 0 -0.09375,-0.031 0.19764913,0.19764913 0 0 0 -0.0625,0 0.19764913,0.19764913 0 0 0 -0.03125,0 0.19764913,0.19764913 0 0 0 -0.03125,0 c -1.080621,0.5801 -1.629838,0.8842 -1.9375,1.0312 -0.307662,0.147 -0.326991,0.1562 -0.46875,0.1562 -0.05414,0 -0.08089,-0.021 -0.125,-0.094 -0.04411,-0.073 -0.09375,-0.2082 -0.09375,-0.375 0,-0.1799 0.08449,-0.6014 0.21875,-1.0937 a 0.19764913,0.19764913 0 0 0 0,-0.031 c 0.580099,-2.3886 0.925915,-3.8059 1.125,-4.6563 0.09954,-0.4251 0.179747,-0.6853 0.21875,-0.875 0.039,-0.1896 0.03125,-0.2906 0.03125,-0.375 0,-0.1271 -0.06292,-0.2428 -0.15625,-0.3124 -0.09333,-0.07 -0.198834,-0.094 -0.3125,-0.094 z"
       id="path3942"
       style="font-size:22.74808884px;font-style:normal;font-variant:normal;font-weight:500;font-stretch:normal;line-height:125%;fill:#424242;fill-opacity:1;stroke:none;font-family:DejaVu Sans;-inkscape-font-specification:URW Chancery L Medium Italic" />
    <path
       d="M 4.75,3 C 4.3489983,3 4,3.31765 4,3.71875 L 4,30.25 C 4,30.651 4.3489983,31 4.75,31 l 26.5,0 C 31.651002,31 32,30.651 32,30.25 L 32,3.71875 C 32,3.31765 31.651002,3 31.25,3 L 4.75,3 z m 1.75,1 23,0 C 30.331,4 31,4.669 31,5.5 L 31,30 5,30 5,5.5 C 5,4.669 5.669,4 6.5,4 z"
       transform="translate(0,1016.3622)"
       id="rect3877"
       style="font-size:medium;font-style:normal;font-variant:normal;font-weight:normal;font-stretch:normal;text-indent:0;text-align:start;text-decoration:none;line-height:normal;letter-spacing:normal;word-spacing:normal;text-transform:none;direction:ltr;block-progression:tb;writing-mode:lr-tb;text-anchor:start;baseline-shift:baseline;color:#000000;fill:url(#linearGradient3897);fill-opacity:1;stroke:none;stroke-width:1;marker:none;visibility:visible;display:inline;overflow:visible;enable-background:accumulate;font-family:Sans;-inkscape-font-specification:Sans" />
  </g>
</svg>
